<?xml version="1.0" standalone="no"?><svg xmlns="http://www.w3.org/2000/svg" viewBox="0 0 1440 320"><path fill="#0099ff" fill-opacity="1" d="M0,256L20,261.3C40,267,80,277,120,272C160,267,200,245,240,208C280,171,320,117,360,128C400,139,440,213,480,218.7C520,224,560,160,600,122.7C640,85,680,75,720,101.3C760,128,800,192,840,192C880,192,920,128,960,101.3C1000,75,1040,85,1080,112C1120,139,1160,181,1200,170.7C1240,160,1280,96,1320,69.3C1360,43,1400,53,1420,58.7L1440,64L1440,320L1420,320C1400,320,1360,320,1320,320C1280,320,1240,320,1200,320C1160,320,1120,320,1080,320C1040,320,1000,320,960,320C920,320,880,320,840,320C800,320,760,320,720,320C680,320,640,320,600,320C560,320,520,320,480,320C440,320,400,320,360,320C320,320,280,320,240,320C200,320,160,320,120,320C80,320,40,320,20,320L0,320Z"></path></svg>